<?xml version="1.0" ?>
<mxfile host="app.diagrams.net">
	<diagram name="Class Hierarchy" id="classDiagram">
		<mxGraphModel dx="1216" dy="660" grid="1" gridSize="10" guides="1" tooltips="1" connect="1" arrows="1" fold="1" page="1" pageScale="1" pageWidth="827" pageHeight="1169">
			<root>
				<mxCell id="0"/>
				<mxCell id="1" parent="0"/>
				<mxCell id="2" value="servers" style="rounded=1;whiteSpace=wrap;html=1;fillColor=#e0f7fa;" vertex="1" parent="1">
					<mxGeometry x="60" y="60" width="140" height="60" as="geometry"/>
				</mxCell>
				<mxCell id="3" value="Folder" style="rounded=1;whiteSpace=wrap;html=1;fillColor=#e0f7fa;" vertex="1" parent="1">
					<mxGeometry x="60" y="180" width="140" height="60" as="geometry"/>
				</mxCell>
				<mxCell id="4" value="File" style="rounded=1;whiteSpace=wrap;html=1;fillColor=#e0f7fa;" vertex="1" parent="1">
					<mxGeometry x="60" y="300" width="140" height="60" as="geometry"/>
				</mxCell>
				<mxCell id="5" value="FolderInitializer" style="rounded=1;whiteSpace=wrap;html=1;fillColor=#e0f7fa;" vertex="1" parent="1">
					<mxGeometry x="60" y="420" width="140" height="60" as="geometry"/>
				</mxCell>
				<mxCell id="6" value="MyEventHandler" style="rounded=1;whiteSpace=wrap;html=1;fillColor=#e0f7fa;" vertex="1" parent="1">
					<mxGeometry x="60" y="540" width="140" height="60" as="geometry"/>
				</mxCell>
				<mxCell id="7" value="Sync" style="rounded=1;whiteSpace=wrap;html=1;fillColor=#e0f7fa;" vertex="1" parent="1">
					<mxGeometry x="60" y="660" width="140" height="60" as="geometry"/>
				</mxCell>
				<mxCell id="8" value="Outgoing" style="rounded=1;whiteSpace=wrap;html=1;fillColor=#e0f7fa;" vertex="1" parent="1">
					<mxGeometry x="280" y="780" width="140" height="60" as="geometry"/>
				</mxCell>
				<mxCell id="9" value="Incoming" style="rounded=1;whiteSpace=wrap;html=1;fillColor=#e0f7fa;" vertex="1" parent="1">
					<mxGeometry x="280" y="900" width="140" height="60" as="geometry"/>
				</mxCell>
				<mxCell id="10" value="SyncEvent" style="rounded=1;whiteSpace=wrap;html=1;fillColor=#e0f7fa;" vertex="1" parent="1">
					<mxGeometry x="500" y="1020" width="140" height="60" as="geometry"/>
				</mxCell>
				<mxCell id="11" value="CreateDir" style="rounded=1;whiteSpace=wrap;html=1;fillColor=#e0f7fa;" vertex="1" parent="1">
					<mxGeometry x="720" y="1140" width="140" height="60" as="geometry"/>
				</mxCell>
				<mxCell id="12" value="CreateFile" style="rounded=1;whiteSpace=wrap;html=1;fillColor=#e0f7fa;" vertex="1" parent="1">
					<mxGeometry x="720" y="1260" width="140" height="60" as="geometry"/>
				</mxCell>
				<mxCell id="13" value="Delete" style="rounded=1;whiteSpace=wrap;html=1;fillColor=#e0f7fa;" vertex="1" parent="1">
					<mxGeometry x="720" y="1380" width="140" height="60" as="geometry"/>
				</mxCell>
				<mxCell id="14" value="Move" style="rounded=1;whiteSpace=wrap;html=1;fillColor=#e0f7fa;" vertex="1" parent="1">
					<mxGeometry x="720" y="1500" width="140" height="60" as="geometry"/>
				</mxCell>
				<mxCell id="15" value="Modify" style="rounded=1;whiteSpace=wrap;html=1;fillColor=#e0f7fa;" vertex="1" parent="1">
					<mxGeometry x="720" y="1620" width="140" height="60" as="geometry"/>
				</mxCell>
				<mxCell id="16" value="" style="endArrow=block;html=1;rounded=1;" edge="1" parent="1" source="8" target="7">
					<mxGeometry relative="1" as="geometry"/>
				</mxCell>
				<mxCell id="17" value="" style="endArrow=block;html=1;rounded=1;" edge="1" parent="1" source="9" target="7">
					<mxGeometry relative="1" as="geometry"/>
				</mxCell>
				<mxCell id="18" value="" style="endArrow=block;html=1;rounded=1;" edge="1" parent="1" source="10" target="9">
					<mxGeometry relative="1" as="geometry"/>
				</mxCell>
				<mxCell id="19" value="" style="endArrow=block;html=1;rounded=1;" edge="1" parent="1" source="11" target="10">
					<mxGeometry relative="1" as="geometry"/>
				</mxCell>
				<mxCell id="20" value="" style="endArrow=block;html=1;rounded=1;" edge="1" parent="1" source="12" target="10">
					<mxGeometry relative="1" as="geometry"/>
				</mxCell>
				<mxCell id="21" value="" style="endArrow=block;html=1;rounded=1;" edge="1" parent="1" source="13" target="10">
					<mxGeometry relative="1" as="geometry"/>
				</mxCell>
				<mxCell id="22" value="" style="endArrow=block;html=1;rounded=1;" edge="1" parent="1" source="14" target="10">
					<mxGeometry relative="1" as="geometry"/>
				</mxCell>
				<mxCell id="23" value="" style="endArrow=block;html=1;rounded=1;" edge="1" parent="1" source="15" target="10">
					<mxGeometry relative="1" as="geometry"/>
				</mxCell>
			</root>
		</mxGraphModel>
	</diagram>
</mxfile>
